<svg xmlns="http://www.w3.org/2000/svg" viewBox="0 0 32 32" width="32" height="32">
  <defs>
    <linearGradient id="boatGradient" x1="0%" y1="0%" x2="100%" y2="100%">
      <stop offset="0%" style="stop-color:#d95cff;stop-opacity:1" />
      <stop offset="100%" style="stop-color:#8b5cf6;stop-opacity:1" />
    </linearGradient>
    <linearGradient id="waterGradient" x1="0%" y1="0%" x2="100%" y2="100%">
      <stop offset="0%" style="stop-color:#3b82f6;stop-opacity:1" />
      <stop offset="100%" style="stop-color:#1d4ed8;stop-opacity:1" />
    </linearGradient>
  </defs>
  
  <!-- Background circle -->
  <circle cx="16" cy="16" r="15" fill="url(#boatGradient)" stroke="#ffffff" stroke-width="1"/>
  
  <!-- Ferry boat -->
  <path d="M8 20 L24 20 L22 24 L10 24 Z" fill="#ffffff" stroke="#8b5cf6" stroke-width="0.5"/>
  
  <!-- Ferry cabin -->
  <rect x="12" y="16" width="8" height="4" fill="#ffffff" stroke="#8b5cf6" stroke-width="0.5"/>
  
  <!-- Windows -->
  <rect x="13" y="17" width="2" height="2" fill="#3b82f6"/>
  <rect x="17" y="17" width="2" height="2" fill="#3b82f6"/>
  
  <!-- Water waves -->
  <path d="M4 26 Q8 24 12 26 Q16 28 20 26 Q24 24 28 26" stroke="url(#waterGradient)" stroke-width="1" fill="none"/>
  <path d="M4 28 Q8 26 12 28 Q16 30 20 28 Q24 26 28 28" stroke="url(#waterGradient)" stroke-width="1" fill="none"/>
  
  <!-- Anchor symbol -->
  <circle cx="16" cy="12" r="2" fill="none" stroke="#ffffff" stroke-width="1"/>
  <path d="M16 10 L16 14 M14 12 L18 12" stroke="#ffffff" stroke-width="1" fill="none"/>
</svg>
